<svg xmlns:xlink="http://www.w3.org/1999/xlink" id="wave" style="transform:rotate(0deg); transition: 0.3s" viewBox="0 0 1440 240" version="1.1" xmlns="http://www.w3.org/2000/svg"><defs><linearGradient id="sw-gradient-0" x1="0" x2="0" y1="1" y2="0"><stop stop-color="rgba(0, 141, 220, 1)" offset="0%"/><stop stop-color="rgba(207, 233, 246, 1)" offset="100%"/></linearGradient></defs><path style="transform:translate(0, 0px); opacity:1" fill="url(#sw-gradient-0)" d="M0,192L21.8,168C43.6,144,87,96,131,80C174.5,64,218,80,262,76C305.5,72,349,48,393,64C436.4,80,480,136,524,152C567.3,168,611,144,655,144C698.2,144,742,168,785,168C829.1,168,873,144,916,140C960,136,1004,152,1047,152C1090.9,152,1135,136,1178,108C1221.8,80,1265,40,1309,20C1352.7,0,1396,0,1440,12C1483.6,24,1527,48,1571,80C1614.5,112,1658,152,1702,144C1745.5,136,1789,80,1833,60C1876.4,40,1920,56,1964,88C2007.3,120,2051,168,2095,176C2138.2,184,2182,152,2225,148C2269.1,144,2313,168,2356,152C2400,136,2444,80,2487,68C2530.9,56,2575,88,2618,120C2661.8,152,2705,184,2749,168C2792.7,152,2836,88,2880,72C2923.6,56,2967,88,3011,92C3054.5,96,3098,72,3120,60L3141.8,48L3141.8,240L3120,240C3098.2,240,3055,240,3011,240C2967.3,240,2924,240,2880,240C2836.4,240,2793,240,2749,240C2705.5,240,2662,240,2618,240C2574.5,240,2531,240,2487,240C2443.6,240,2400,240,2356,240C2312.7,240,2269,240,2225,240C2181.8,240,2138,240,2095,240C2050.9,240,2007,240,1964,240C1920,240,1876,240,1833,240C1789.1,240,1745,240,1702,240C1658.2,240,1615,240,1571,240C1527.3,240,1484,240,1440,240C1396.4,240,1353,240,1309,240C1265.5,240,1222,240,1178,240C1134.5,240,1091,240,1047,240C1003.6,240,960,240,916,240C872.7,240,829,240,785,240C741.8,240,698,240,655,240C610.9,240,567,240,524,240C480,240,436,240,393,240C349.1,240,305,240,262,240C218.2,240,175,240,131,240C87.3,240,44,240,22,240L0,240Z"/><defs><linearGradient id="sw-gradient-1" x1="0" x2="0" y1="1" y2="0"><stop stop-color="rgba(10, 148, 221, 1)" offset="0%"/><stop stop-color="rgba(1, 159, 220, 1)" offset="100%"/></linearGradient></defs><path style="transform:translate(0, 50px); opacity:0.9" fill="url(#sw-gradient-1)" d="M0,0L21.8,20C43.6,40,87,80,131,104C174.5,128,218,136,262,124C305.5,112,349,80,393,72C436.4,64,480,80,524,104C567.3,128,611,160,655,148C698.2,136,742,80,785,48C829.1,16,873,8,916,24C960,40,1004,80,1047,80C1090.9,80,1135,40,1178,48C1221.8,56,1265,112,1309,140C1352.7,168,1396,168,1440,144C1483.6,120,1527,72,1571,72C1614.5,72,1658,120,1702,124C1745.5,128,1789,88,1833,92C1876.4,96,1920,144,1964,152C2007.3,160,2051,128,2095,124C2138.2,120,2182,144,2225,128C2269.1,112,2313,56,2356,56C2400,56,2444,112,2487,136C2530.9,160,2575,152,2618,160C2661.8,168,2705,192,2749,200C2792.7,208,2836,200,2880,172C2923.6,144,2967,96,3011,72C3054.5,48,3098,48,3120,48L3141.8,48L3141.8,240L3120,240C3098.2,240,3055,240,3011,240C2967.3,240,2924,240,2880,240C2836.4,240,2793,240,2749,240C2705.5,240,2662,240,2618,240C2574.5,240,2531,240,2487,240C2443.6,240,2400,240,2356,240C2312.7,240,2269,240,2225,240C2181.8,240,2138,240,2095,240C2050.9,240,2007,240,1964,240C1920,240,1876,240,1833,240C1789.1,240,1745,240,1702,240C1658.2,240,1615,240,1571,240C1527.3,240,1484,240,1440,240C1396.4,240,1353,240,1309,240C1265.5,240,1222,240,1178,240C1134.5,240,1091,240,1047,240C1003.6,240,960,240,916,240C872.7,240,829,240,785,240C741.8,240,698,240,655,240C610.9,240,567,240,524,240C480,240,436,240,393,240C349.1,240,305,240,262,240C218.2,240,175,240,131,240C87.3,240,44,240,22,240L0,240Z"/><defs><linearGradient id="sw-gradient-2" x1="0" x2="0" y1="1" y2="0"><stop stop-color="rgba(1, 159, 220, 1)" offset="0%"/><stop stop-color="rgba(198, 232, 242, 1)" offset="100%"/></linearGradient></defs><path style="transform:translate(0, 100px); opacity:0.8" fill="url(#sw-gradient-2)" d="M0,24L21.8,24C43.6,24,87,24,131,24C174.5,24,218,24,262,48C305.5,72,349,120,393,120C436.4,120,480,72,524,68C567.3,64,611,104,655,108C698.2,112,742,80,785,88C829.1,96,873,144,916,140C960,136,1004,80,1047,72C1090.9,64,1135,104,1178,112C1221.8,120,1265,96,1309,84C1352.7,72,1396,72,1440,88C1483.6,104,1527,136,1571,148C1614.5,160,1658,152,1702,132C1745.5,112,1789,80,1833,88C1876.4,96,1920,144,1964,148C2007.3,152,2051,112,2095,108C2138.2,104,2182,136,2225,152C2269.1,168,2313,168,2356,144C2400,120,2444,72,2487,60C2530.9,48,2575,72,2618,100C2661.8,128,2705,160,2749,172C2792.7,184,2836,176,2880,168C2923.6,160,2967,152,3011,148C3054.5,144,3098,144,3120,144L3141.8,144L3141.8,240L3120,240C3098.2,240,3055,240,3011,240C2967.3,240,2924,240,2880,240C2836.4,240,2793,240,2749,240C2705.5,240,2662,240,2618,240C2574.5,240,2531,240,2487,240C2443.6,240,2400,240,2356,240C2312.7,240,2269,240,2225,240C2181.8,240,2138,240,2095,240C2050.9,240,2007,240,1964,240C1920,240,1876,240,1833,240C1789.1,240,1745,240,1702,240C1658.2,240,1615,240,1571,240C1527.3,240,1484,240,1440,240C1396.4,240,1353,240,1309,240C1265.5,240,1222,240,1178,240C1134.5,240,1091,240,1047,240C1003.6,240,960,240,916,240C872.7,240,829,240,785,240C741.8,240,698,240,655,240C610.9,240,567,240,524,240C480,240,436,240,393,240C349.1,240,305,240,262,240C218.2,240,175,240,131,240C87.3,240,44,240,22,240L0,240Z"/></svg>